<svg width="428" height="53" viewBox="0 0 428 53" fill="none" xmlns="http://www.w3.org/2000/svg">
<path d="M31.7364 27.9696C31.802 35.0822 37.9321 37.4491 38 37.4793C37.9482 37.6462 37.0205 40.8524 34.7704 44.1641C32.8253 47.0272 30.8065 49.8798 27.6263 49.9389C24.5014 49.9969 23.4966 48.0727 19.924 48.0727C16.3525 48.0727 15.2361 49.8798 12.278 49.9969C9.20833 50.1139 6.87078 46.9008 4.90948 44.0482C0.901802 38.213 -2.1609 27.5593 1.95153 20.3679C3.9945 16.7967 7.64544 14.5352 11.6082 14.4772C14.6226 14.4193 17.4678 16.5195 19.3105 16.5195C21.152 16.5195 24.6096 13.9938 28.2443 14.3647C29.766 14.4285 34.0372 14.9837 36.7799 19.0268C36.5589 19.1648 31.6834 22.0232 31.7364 27.9696ZM25.8636 10.5043C27.4933 8.51754 28.5902 5.75185 28.291 3C25.9419 3.09508 23.1013 4.5765 21.4163 6.56212C19.9062 8.32049 18.5837 11.1349 18.9406 13.8322C21.5589 14.0363 24.2338 12.4922 25.8636 10.5043Z" fill="#F2F4F7"/>
</svg>
